<mxfile host="app.diagrams.net" agent="Mozilla/5.0 (Windows NT 10.0; Win64; x64) AppleWebKit/537.36 (KHTML, like Gecko) Chrome/132.0.0.0 Safari/537.36 OPR/117.0.0.0" version="26.2.12">
  <diagram name="PÃ¡gina-1" id="c1U27vAQ0XV7E7jSRlWM">
    <mxGraphModel dx="1242" dy="1711" grid="1" gridSize="10" guides="1" tooltips="1" connect="1" arrows="1" fold="1" page="1" pageScale="1" pageWidth="827" pageHeight="1169" math="0" shadow="0">
      <root>
        <mxCell id="0" />
        <mxCell id="1" parent="0" />
        <mxCell id="F-CY7NGusyEUws-KS-kk-2" value="1" style="whiteSpace=wrap;html=1;aspect=fixed;" vertex="1" parent="1">
          <mxGeometry x="120" y="110" width="80" height="80" as="geometry" />
        </mxCell>
        <mxCell id="F-CY7NGusyEUws-KS-kk-3" value="3" style="whiteSpace=wrap;html=1;aspect=fixed;" vertex="1" parent="1">
          <mxGeometry x="120" y="30" width="80" height="80" as="geometry" />
        </mxCell>
        <mxCell id="F-CY7NGusyEUws-KS-kk-4" value="5" style="whiteSpace=wrap;html=1;aspect=fixed;" vertex="1" parent="1">
          <mxGeometry x="120" y="-50" width="80" height="80" as="geometry" />
        </mxCell>
        <mxCell id="F-CY7NGusyEUws-KS-kk-5" value="6" style="whiteSpace=wrap;html=1;aspect=fixed;" vertex="1" parent="1">
          <mxGeometry x="120" y="-130" width="80" height="80" as="geometry" />
        </mxCell>
        <mxCell id="F-CY7NGusyEUws-KS-kk-6" value="7" style="whiteSpace=wrap;html=1;aspect=fixed;" vertex="1" parent="1">
          <mxGeometry x="230" y="110" width="80" height="80" as="geometry" />
        </mxCell>
        <mxCell id="F-CY7NGusyEUws-KS-kk-7" value="9" style="whiteSpace=wrap;html=1;aspect=fixed;" vertex="1" parent="1">
          <mxGeometry x="230" y="30" width="80" height="80" as="geometry" />
        </mxCell>
        <mxCell id="F-CY7NGusyEUws-KS-kk-8" value="10" style="whiteSpace=wrap;html=1;aspect=fixed;" vertex="1" parent="1">
          <mxGeometry x="230" y="-50" width="80" height="80" as="geometry" />
        </mxCell>
        <mxCell id="F-CY7NGusyEUws-KS-kk-10" value="" style="shape=flexArrow;endArrow=classic;html=1;rounded=0;" edge="1" parent="1">
          <mxGeometry width="50" height="50" relative="1" as="geometry">
            <mxPoint x="340" y="110" as="sourcePoint" />
            <mxPoint x="430" y="110" as="targetPoint" />
          </mxGeometry>
        </mxCell>
        <mxCell id="F-CY7NGusyEUws-KS-kk-11" value="&lt;div style=&quot;text-align: left;&quot;&gt;&lt;font size=&quot;2&quot; face=&quot;arial, helvetica, sans-serif&quot; color=&quot;#c1c1c1&quot;&gt;&lt;span style=&quot;text-wrap-mode: wrap;&quot;&gt;Desempilhar A&lt;/span&gt;&lt;/font&gt;&lt;/div&gt;&lt;div style=&quot;text-align: left;&quot;&gt;&lt;font size=&quot;2&quot; face=&quot;arial, helvetica, sans-serif&quot; color=&quot;#c1c1c1&quot;&gt;&lt;span style=&quot;text-wrap-mode: wrap;&quot;&gt;Empilhar em B o Elemento desempilhado em A&lt;/span&gt;&lt;/font&gt;&lt;/div&gt;" style="text;html=1;align=center;verticalAlign=middle;resizable=0;points=[];autosize=1;strokeColor=none;fillColor=none;" vertex="1" parent="1">
          <mxGeometry x="230" y="10" width="300" height="40" as="geometry" />
        </mxCell>
        <mxCell id="F-CY7NGusyEUws-KS-kk-13" value="1" style="whiteSpace=wrap;html=1;aspect=fixed;" vertex="1" parent="1">
          <mxGeometry x="450" y="110" width="80" height="80" as="geometry" />
        </mxCell>
        <mxCell id="F-CY7NGusyEUws-KS-kk-14" value="3" style="whiteSpace=wrap;html=1;aspect=fixed;" vertex="1" parent="1">
          <mxGeometry x="450" y="30" width="80" height="80" as="geometry" />
        </mxCell>
        <mxCell id="F-CY7NGusyEUws-KS-kk-15" value="5" style="whiteSpace=wrap;html=1;aspect=fixed;" vertex="1" parent="1">
          <mxGeometry x="450" y="-50" width="80" height="80" as="geometry" />
        </mxCell>
        <mxCell id="F-CY7NGusyEUws-KS-kk-16" value="6" style="whiteSpace=wrap;html=1;aspect=fixed;" vertex="1" parent="1">
          <mxGeometry x="560" y="-130" width="80" height="80" as="geometry" />
        </mxCell>
        <mxCell id="F-CY7NGusyEUws-KS-kk-17" value="7" style="whiteSpace=wrap;html=1;aspect=fixed;" vertex="1" parent="1">
          <mxGeometry x="560" y="110" width="80" height="80" as="geometry" />
        </mxCell>
        <mxCell id="F-CY7NGusyEUws-KS-kk-18" value="9" style="whiteSpace=wrap;html=1;aspect=fixed;" vertex="1" parent="1">
          <mxGeometry x="560" y="30" width="80" height="80" as="geometry" />
        </mxCell>
        <mxCell id="F-CY7NGusyEUws-KS-kk-19" value="10" style="whiteSpace=wrap;html=1;aspect=fixed;" vertex="1" parent="1">
          <mxGeometry x="560" y="-50" width="80" height="80" as="geometry" />
        </mxCell>
        <mxCell id="F-CY7NGusyEUws-KS-kk-20" value="" style="shape=flexArrow;endArrow=classic;html=1;rounded=0;" edge="1" parent="1">
          <mxGeometry width="50" height="50" relative="1" as="geometry">
            <mxPoint x="670" y="110" as="sourcePoint" />
            <mxPoint x="760" y="110" as="targetPoint" />
          </mxGeometry>
        </mxCell>
        <mxCell id="F-CY7NGusyEUws-KS-kk-21" value="&lt;div style=&quot;text-align: left;&quot;&gt;&lt;font size=&quot;2&quot; face=&quot;arial, helvetica, sans-serif&quot; color=&quot;#474747&quot;&gt;&lt;span style=&quot;text-wrap-mode: wrap;&quot;&gt;Empilhar em B o elemento 8&lt;/span&gt;&lt;/font&gt;&lt;/div&gt;" style="text;html=1;align=center;verticalAlign=middle;resizable=0;points=[];autosize=1;strokeColor=none;fillColor=none;" vertex="1" parent="1">
          <mxGeometry x="610" y="30" width="190" height="30" as="geometry" />
        </mxCell>
        <mxCell id="F-CY7NGusyEUws-KS-kk-22" value="1" style="whiteSpace=wrap;html=1;aspect=fixed;" vertex="1" parent="1">
          <mxGeometry x="780" y="110" width="80" height="80" as="geometry" />
        </mxCell>
        <mxCell id="F-CY7NGusyEUws-KS-kk-23" value="3" style="whiteSpace=wrap;html=1;aspect=fixed;" vertex="1" parent="1">
          <mxGeometry x="780" y="30" width="80" height="80" as="geometry" />
        </mxCell>
        <mxCell id="F-CY7NGusyEUws-KS-kk-24" value="5" style="whiteSpace=wrap;html=1;aspect=fixed;" vertex="1" parent="1">
          <mxGeometry x="780" y="-50" width="80" height="80" as="geometry" />
        </mxCell>
        <mxCell id="F-CY7NGusyEUws-KS-kk-25" value="6" style="whiteSpace=wrap;html=1;aspect=fixed;" vertex="1" parent="1">
          <mxGeometry x="890" y="-130" width="80" height="80" as="geometry" />
        </mxCell>
        <mxCell id="F-CY7NGusyEUws-KS-kk-26" value="7" style="whiteSpace=wrap;html=1;aspect=fixed;" vertex="1" parent="1">
          <mxGeometry x="890" y="110" width="80" height="80" as="geometry" />
        </mxCell>
        <mxCell id="F-CY7NGusyEUws-KS-kk-27" value="9" style="whiteSpace=wrap;html=1;aspect=fixed;" vertex="1" parent="1">
          <mxGeometry x="890" y="30" width="80" height="80" as="geometry" />
        </mxCell>
        <mxCell id="F-CY7NGusyEUws-KS-kk-28" value="10" style="whiteSpace=wrap;html=1;aspect=fixed;" vertex="1" parent="1">
          <mxGeometry x="890" y="-50" width="80" height="80" as="geometry" />
        </mxCell>
        <mxCell id="F-CY7NGusyEUws-KS-kk-29" value="" style="shape=flexArrow;endArrow=classic;html=1;rounded=0;" edge="1" parent="1">
          <mxGeometry width="50" height="50" relative="1" as="geometry">
            <mxPoint x="1000" y="110" as="sourcePoint" />
            <mxPoint x="1090" y="110" as="targetPoint" />
          </mxGeometry>
        </mxCell>
        <mxCell id="F-CY7NGusyEUws-KS-kk-30" value="8" style="whiteSpace=wrap;html=1;aspect=fixed;" vertex="1" parent="1">
          <mxGeometry x="890" y="-210" width="80" height="80" as="geometry" />
        </mxCell>
        <mxCell id="F-CY7NGusyEUws-KS-kk-31" value="&lt;div style=&quot;text-align: left;&quot;&gt;&lt;font size=&quot;2&quot; face=&quot;arial, helvetica, sans-serif&quot; color=&quot;#b0b0b0&quot;&gt;&lt;span style=&quot;text-wrap-mode: wrap;&quot;&gt;Desempilhar B,&lt;/span&gt;&lt;/font&gt;&lt;/div&gt;&lt;div style=&quot;text-align: left;&quot;&gt;&lt;font size=&quot;2&quot; face=&quot;arial, helvetica, sans-serif&quot; color=&quot;#b0b0b0&quot;&gt;&lt;span style=&quot;text-wrap-mode: wrap;&quot;&gt;Empilhar em A o elemento desempilhado em B&lt;/span&gt;&lt;/font&gt;&lt;/div&gt;" style="text;html=1;align=center;verticalAlign=middle;resizable=0;points=[];autosize=1;strokeColor=none;fillColor=none;" vertex="1" parent="1">
          <mxGeometry x="900" y="20" width="290" height="40" as="geometry" />
        </mxCell>
        <mxCell id="F-CY7NGusyEUws-KS-kk-32" value="1" style="whiteSpace=wrap;html=1;aspect=fixed;" vertex="1" parent="1">
          <mxGeometry x="1110" y="110" width="80" height="80" as="geometry" />
        </mxCell>
        <mxCell id="F-CY7NGusyEUws-KS-kk-33" value="3" style="whiteSpace=wrap;html=1;aspect=fixed;" vertex="1" parent="1">
          <mxGeometry x="1110" y="30" width="80" height="80" as="geometry" />
        </mxCell>
        <mxCell id="F-CY7NGusyEUws-KS-kk-34" value="5" style="whiteSpace=wrap;html=1;aspect=fixed;" vertex="1" parent="1">
          <mxGeometry x="1110" y="-50" width="80" height="80" as="geometry" />
        </mxCell>
        <mxCell id="F-CY7NGusyEUws-KS-kk-35" value="6" style="whiteSpace=wrap;html=1;aspect=fixed;" vertex="1" parent="1">
          <mxGeometry x="1220" y="-130" width="80" height="80" as="geometry" />
        </mxCell>
        <mxCell id="F-CY7NGusyEUws-KS-kk-36" value="7" style="whiteSpace=wrap;html=1;aspect=fixed;" vertex="1" parent="1">
          <mxGeometry x="1220" y="110" width="80" height="80" as="geometry" />
        </mxCell>
        <mxCell id="F-CY7NGusyEUws-KS-kk-37" value="9" style="whiteSpace=wrap;html=1;aspect=fixed;" vertex="1" parent="1">
          <mxGeometry x="1220" y="30" width="80" height="80" as="geometry" />
        </mxCell>
        <mxCell id="F-CY7NGusyEUws-KS-kk-38" value="10" style="whiteSpace=wrap;html=1;aspect=fixed;" vertex="1" parent="1">
          <mxGeometry x="1220" y="-50" width="80" height="80" as="geometry" />
        </mxCell>
        <mxCell id="F-CY7NGusyEUws-KS-kk-39" value="" style="shape=flexArrow;endArrow=classic;html=1;rounded=0;" edge="1" parent="1">
          <mxGeometry width="50" height="50" relative="1" as="geometry">
            <mxPoint x="1330" y="110" as="sourcePoint" />
            <mxPoint x="1420" y="110" as="targetPoint" />
          </mxGeometry>
        </mxCell>
        <mxCell id="F-CY7NGusyEUws-KS-kk-40" value="8" style="whiteSpace=wrap;html=1;aspect=fixed;" vertex="1" parent="1">
          <mxGeometry x="1110" y="-130" width="80" height="80" as="geometry" />
        </mxCell>
        <mxCell id="F-CY7NGusyEUws-KS-kk-41" value="&lt;div style=&quot;text-align: left;&quot;&gt;&lt;font size=&quot;2&quot; face=&quot;arial, helvetica, sans-serif&quot; color=&quot;#565656&quot;&gt;&lt;span style=&quot;text-wrap-mode: wrap;&quot;&gt;Empilhar em B o elemento 2,&lt;/span&gt;&lt;/font&gt;&lt;/div&gt;&lt;div style=&quot;text-align: left;&quot;&gt;&lt;font size=&quot;2&quot; face=&quot;arial, helvetica, sans-serif&quot; color=&quot;#565656&quot;&gt;&lt;span style=&quot;text-wrap-mode: wrap;&quot;&gt;Desempilhar A,&lt;/span&gt;&lt;/font&gt;&lt;/div&gt;&lt;div style=&quot;text-align: left;&quot;&gt;&lt;font size=&quot;2&quot; face=&quot;arial, helvetica, sans-serif&quot; color=&quot;#565656&quot;&gt;&lt;span style=&quot;text-wrap-mode: wrap;&quot;&gt;Empilhar em B o desempilado em A&lt;/span&gt;&lt;/font&gt;&lt;/div&gt;" style="text;html=1;align=center;verticalAlign=middle;resizable=0;points=[];autosize=1;strokeColor=none;fillColor=none;" vertex="1" parent="1">
          <mxGeometry x="1250" y="-10" width="230" height="60" as="geometry" />
        </mxCell>
        <mxCell id="F-CY7NGusyEUws-KS-kk-42" value="1" style="whiteSpace=wrap;html=1;aspect=fixed;" vertex="1" parent="1">
          <mxGeometry x="1450" y="110" width="80" height="80" as="geometry" />
        </mxCell>
        <mxCell id="F-CY7NGusyEUws-KS-kk-43" value="3" style="whiteSpace=wrap;html=1;aspect=fixed;" vertex="1" parent="1">
          <mxGeometry x="1450" y="30" width="80" height="80" as="geometry" />
        </mxCell>
        <mxCell id="F-CY7NGusyEUws-KS-kk-44" value="5" style="whiteSpace=wrap;html=1;aspect=fixed;" vertex="1" parent="1">
          <mxGeometry x="1450" y="-50" width="80" height="80" as="geometry" />
        </mxCell>
        <mxCell id="F-CY7NGusyEUws-KS-kk-45" value="6" style="whiteSpace=wrap;html=1;aspect=fixed;" vertex="1" parent="1">
          <mxGeometry x="1560" y="-130" width="80" height="80" as="geometry" />
        </mxCell>
        <mxCell id="F-CY7NGusyEUws-KS-kk-46" value="7" style="whiteSpace=wrap;html=1;aspect=fixed;" vertex="1" parent="1">
          <mxGeometry x="1560" y="110" width="80" height="80" as="geometry" />
        </mxCell>
        <mxCell id="F-CY7NGusyEUws-KS-kk-47" value="9" style="whiteSpace=wrap;html=1;aspect=fixed;" vertex="1" parent="1">
          <mxGeometry x="1560" y="30" width="80" height="80" as="geometry" />
        </mxCell>
        <mxCell id="F-CY7NGusyEUws-KS-kk-48" value="10" style="whiteSpace=wrap;html=1;aspect=fixed;" vertex="1" parent="1">
          <mxGeometry x="1560" y="-50" width="80" height="80" as="geometry" />
        </mxCell>
        <mxCell id="F-CY7NGusyEUws-KS-kk-50" value="8" style="whiteSpace=wrap;html=1;aspect=fixed;" vertex="1" parent="1">
          <mxGeometry x="1560" y="-290" width="80" height="80" as="geometry" />
        </mxCell>
        <mxCell id="F-CY7NGusyEUws-KS-kk-51" value="2" style="whiteSpace=wrap;html=1;aspect=fixed;" vertex="1" parent="1">
          <mxGeometry x="1560" y="-210" width="80" height="80" as="geometry" />
        </mxCell>
      </root>
    </mxGraphModel>
  </diagram>
</mxfile>
